<mxfile host="app.diagrams.net" modified="2022-10-04T23:24:56.533Z" agent="5.0 (Macintosh; Intel Mac OS X 10_15_7) AppleWebKit/537.36 (KHTML, like Gecko) Chrome/105.0.0.0 Safari/537.36" etag="YV3m4_eKAGWV5DT2Byd0" version="20.4.0" type="github">
  <diagram id="GGtAxQR87jNN7aj1yXC5" name="Page-1">
    <mxGraphModel dx="2404" dy="2192" grid="1" gridSize="10" guides="1" tooltips="1" connect="1" arrows="1" fold="1" page="1" pageScale="1" pageWidth="827" pageHeight="1169" math="0" shadow="0">
      <root>
        <mxCell id="0" />
        <mxCell id="1" parent="0" />
        <mxCell id="cSfYM5C8PKikPZIdfRje-1" value="User" style="whiteSpace=wrap;html=1;align=center;" vertex="1" parent="1">
          <mxGeometry x="20" y="-950" width="90" height="40" as="geometry" />
        </mxCell>
        <mxCell id="cSfYM5C8PKikPZIdfRje-3" value="uid" style="ellipse;whiteSpace=wrap;html=1;align=center;fontStyle=4;" vertex="1" parent="1">
          <mxGeometry x="210" y="-1140" width="100" height="40" as="geometry" />
        </mxCell>
        <mxCell id="cSfYM5C8PKikPZIdfRje-4" value="email" style="ellipse;whiteSpace=wrap;html=1;align=center;" vertex="1" parent="1">
          <mxGeometry x="210" y="-1080" width="100" height="40" as="geometry" />
        </mxCell>
        <mxCell id="cSfYM5C8PKikPZIdfRje-5" value="name" style="ellipse;whiteSpace=wrap;html=1;align=center;strokeWidth=1;" vertex="1" parent="1">
          <mxGeometry x="210" y="-1020" width="100" height="40" as="geometry" />
        </mxCell>
        <mxCell id="cSfYM5C8PKikPZIdfRje-6" value="join_date" style="ellipse;whiteSpace=wrap;html=1;align=center;" vertex="1" parent="1">
          <mxGeometry x="210" y="-960" width="100" height="40" as="geometry" />
        </mxCell>
        <mxCell id="cSfYM5C8PKikPZIdfRje-7" value="phone" style="ellipse;shape=doubleEllipse;margin=3;whiteSpace=wrap;html=1;align=center;" vertex="1" parent="1">
          <mxGeometry x="210" y="-900" width="100" height="40" as="geometry" />
        </mxCell>
        <mxCell id="cSfYM5C8PKikPZIdfRje-8" value="interests" style="ellipse;shape=doubleEllipse;margin=3;whiteSpace=wrap;html=1;align=center;strokeWidth=1;" vertex="1" parent="1">
          <mxGeometry x="210" y="-830" width="100" height="40" as="geometry" />
        </mxCell>
        <mxCell id="cSfYM5C8PKikPZIdfRje-9" value="address" style="ellipse;whiteSpace=wrap;html=1;align=center;strokeWidth=1;" vertex="1" parent="1">
          <mxGeometry x="210" y="-770" width="100" height="40" as="geometry" />
        </mxCell>
        <mxCell id="cSfYM5C8PKikPZIdfRje-10" value="" style="endArrow=oval;html=1;rounded=0;exitX=1;exitY=0;exitDx=0;exitDy=0;entryX=0;entryY=0.5;entryDx=0;entryDy=0;endFill=1;" edge="1" parent="1" source="cSfYM5C8PKikPZIdfRje-1" target="cSfYM5C8PKikPZIdfRje-3">
          <mxGeometry relative="1" as="geometry">
            <mxPoint x="90" y="-1060.32" as="sourcePoint" />
            <mxPoint x="250" y="-1060.32" as="targetPoint" />
            <Array as="points" />
          </mxGeometry>
        </mxCell>
        <mxCell id="cSfYM5C8PKikPZIdfRje-11" value="" style="endArrow=oval;html=1;rounded=0;exitX=1;exitY=0;exitDx=0;exitDy=0;entryX=0;entryY=0.5;entryDx=0;entryDy=0;endFill=1;" edge="1" parent="1" target="cSfYM5C8PKikPZIdfRje-4">
          <mxGeometry relative="1" as="geometry">
            <mxPoint x="110" y="-920" as="sourcePoint" />
            <mxPoint x="210" y="-1090" as="targetPoint" />
            <Array as="points" />
          </mxGeometry>
        </mxCell>
        <mxCell id="cSfYM5C8PKikPZIdfRje-12" value="" style="endArrow=oval;html=1;rounded=0;exitX=1;exitY=0.75;exitDx=0;exitDy=0;entryX=0;entryY=0.5;entryDx=0;entryDy=0;endFill=1;" edge="1" parent="1" source="cSfYM5C8PKikPZIdfRje-1">
          <mxGeometry relative="1" as="geometry">
            <mxPoint x="110" y="-830" as="sourcePoint" />
            <mxPoint x="210" y="-1000" as="targetPoint" />
            <Array as="points" />
          </mxGeometry>
        </mxCell>
        <mxCell id="cSfYM5C8PKikPZIdfRje-13" value="" style="endArrow=oval;html=1;rounded=0;exitX=1;exitY=0.75;exitDx=0;exitDy=0;entryX=0;entryY=0.5;entryDx=0;entryDy=0;endFill=1;" edge="1" parent="1" source="cSfYM5C8PKikPZIdfRje-1">
          <mxGeometry relative="1" as="geometry">
            <mxPoint x="110" y="-770" as="sourcePoint" />
            <mxPoint x="210" y="-940" as="targetPoint" />
            <Array as="points" />
          </mxGeometry>
        </mxCell>
        <mxCell id="cSfYM5C8PKikPZIdfRje-15" value="" style="endArrow=none;html=1;rounded=0;exitX=1;exitY=0.75;exitDx=0;exitDy=0;entryX=0;entryY=0.5;entryDx=0;entryDy=0;" edge="1" parent="1" source="cSfYM5C8PKikPZIdfRje-1">
          <mxGeometry relative="1" as="geometry">
            <mxPoint x="110" y="-710" as="sourcePoint" />
            <mxPoint x="210" y="-880" as="targetPoint" />
            <Array as="points" />
          </mxGeometry>
        </mxCell>
        <mxCell id="cSfYM5C8PKikPZIdfRje-16" value="" style="endArrow=none;html=1;rounded=0;exitX=1;exitY=1;exitDx=0;exitDy=0;entryX=0;entryY=0.5;entryDx=0;entryDy=0;" edge="1" parent="1" source="cSfYM5C8PKikPZIdfRje-1">
          <mxGeometry relative="1" as="geometry">
            <mxPoint x="110" y="-850" as="sourcePoint" />
            <mxPoint x="210" y="-810" as="targetPoint" />
            <Array as="points" />
          </mxGeometry>
        </mxCell>
        <mxCell id="cSfYM5C8PKikPZIdfRje-17" value="" style="endArrow=none;html=1;rounded=0;exitX=0.95;exitY=1.015;exitDx=0;exitDy=0;entryX=0;entryY=0.5;entryDx=0;entryDy=0;exitPerimeter=0;" edge="1" parent="1" source="cSfYM5C8PKikPZIdfRje-1">
          <mxGeometry relative="1" as="geometry">
            <mxPoint x="110" y="-790" as="sourcePoint" />
            <mxPoint x="210" y="-750" as="targetPoint" />
            <Array as="points" />
          </mxGeometry>
        </mxCell>
        <mxCell id="cSfYM5C8PKikPZIdfRje-18" value="first name" style="ellipse;whiteSpace=wrap;html=1;align=center;strokeWidth=1;" vertex="1" parent="1">
          <mxGeometry x="345" y="-990" width="70" height="20" as="geometry" />
        </mxCell>
        <mxCell id="cSfYM5C8PKikPZIdfRje-19" value="last name" style="ellipse;whiteSpace=wrap;html=1;align=center;strokeWidth=1;" vertex="1" parent="1">
          <mxGeometry x="345" y="-1030" width="70" height="20" as="geometry" />
        </mxCell>
        <mxCell id="cSfYM5C8PKikPZIdfRje-22" value="" style="endArrow=oval;html=1;rounded=0;entryX=0;entryY=0.5;entryDx=0;entryDy=0;endFill=1;" edge="1" parent="1" target="cSfYM5C8PKikPZIdfRje-19">
          <mxGeometry width="50" height="50" relative="1" as="geometry">
            <mxPoint x="310" y="-1000" as="sourcePoint" />
            <mxPoint x="340" y="-1020" as="targetPoint" />
          </mxGeometry>
        </mxCell>
        <mxCell id="cSfYM5C8PKikPZIdfRje-23" value="" style="endArrow=none;html=1;rounded=0;exitX=0.994;exitY=0.668;exitDx=0;exitDy=0;exitPerimeter=0;" edge="1" parent="1" source="cSfYM5C8PKikPZIdfRje-5">
          <mxGeometry width="50" height="50" relative="1" as="geometry">
            <mxPoint x="315" y="-960" as="sourcePoint" />
            <mxPoint x="345" y="-980" as="targetPoint" />
          </mxGeometry>
        </mxCell>
        <mxCell id="cSfYM5C8PKikPZIdfRje-25" value="city" style="ellipse;whiteSpace=wrap;html=1;align=center;strokeWidth=1;" vertex="1" parent="1">
          <mxGeometry x="360" y="-750" width="70" height="20" as="geometry" />
        </mxCell>
        <mxCell id="cSfYM5C8PKikPZIdfRje-26" value="zip" style="ellipse;whiteSpace=wrap;html=1;align=center;strokeWidth=1;" vertex="1" parent="1">
          <mxGeometry x="360" y="-670" width="70" height="20" as="geometry" />
        </mxCell>
        <mxCell id="cSfYM5C8PKikPZIdfRje-27" value="street" style="ellipse;whiteSpace=wrap;html=1;align=center;strokeWidth=1;" vertex="1" parent="1">
          <mxGeometry x="360" y="-790" width="70" height="20" as="geometry" />
        </mxCell>
        <mxCell id="cSfYM5C8PKikPZIdfRje-28" value="state" style="ellipse;whiteSpace=wrap;html=1;align=center;strokeWidth=1;" vertex="1" parent="1">
          <mxGeometry x="360" y="-710" width="70" height="20" as="geometry" />
        </mxCell>
        <mxCell id="cSfYM5C8PKikPZIdfRje-29" style="edgeStyle=orthogonalEdgeStyle;rounded=0;orthogonalLoop=1;jettySize=auto;html=1;exitX=0.5;exitY=1;exitDx=0;exitDy=0;" edge="1" parent="1" source="cSfYM5C8PKikPZIdfRje-27" target="cSfYM5C8PKikPZIdfRje-27">
          <mxGeometry relative="1" as="geometry" />
        </mxCell>
        <mxCell id="cSfYM5C8PKikPZIdfRje-31" value="" style="endArrow=none;html=1;rounded=0;exitX=0.994;exitY=0.668;exitDx=0;exitDy=0;exitPerimeter=0;entryX=0;entryY=0.5;entryDx=0;entryDy=0;" edge="1" parent="1" target="cSfYM5C8PKikPZIdfRje-27">
          <mxGeometry width="50" height="50" relative="1" as="geometry">
            <mxPoint x="309.4000000000001" y="-750" as="sourcePoint" />
            <mxPoint x="345" y="-736.72" as="targetPoint" />
          </mxGeometry>
        </mxCell>
        <mxCell id="cSfYM5C8PKikPZIdfRje-32" value="" style="endArrow=none;html=1;rounded=0;exitX=1.011;exitY=0.619;exitDx=0;exitDy=0;exitPerimeter=0;" edge="1" parent="1" source="cSfYM5C8PKikPZIdfRje-9">
          <mxGeometry width="50" height="50" relative="1" as="geometry">
            <mxPoint x="328.0000000000001" y="-750" as="sourcePoint" />
            <mxPoint x="363.6" y="-736.72" as="targetPoint" />
          </mxGeometry>
        </mxCell>
        <mxCell id="cSfYM5C8PKikPZIdfRje-33" value="" style="endArrow=none;html=1;rounded=0;exitX=1;exitY=0.75;exitDx=0;exitDy=0;exitPerimeter=0;" edge="1" parent="1" source="cSfYM5C8PKikPZIdfRje-9">
          <mxGeometry width="50" height="50" relative="1" as="geometry">
            <mxPoint x="324.4000000000001" y="-710" as="sourcePoint" />
            <mxPoint x="360" y="-696.72" as="targetPoint" />
          </mxGeometry>
        </mxCell>
        <mxCell id="cSfYM5C8PKikPZIdfRje-34" value="" style="endArrow=none;html=1;rounded=0;" edge="1" parent="1">
          <mxGeometry width="50" height="50" relative="1" as="geometry">
            <mxPoint x="310" y="-741.64" as="sourcePoint" />
            <mxPoint x="360" y="-658.36" as="targetPoint" />
          </mxGeometry>
        </mxCell>
        <mxCell id="cSfYM5C8PKikPZIdfRje-36" value="type" style="ellipse;whiteSpace=wrap;html=1;align=center;strokeWidth=1;" vertex="1" parent="1">
          <mxGeometry x="345" y="-870" width="70" height="20" as="geometry" />
        </mxCell>
        <mxCell id="cSfYM5C8PKikPZIdfRje-37" value="number" style="ellipse;whiteSpace=wrap;html=1;align=center;strokeWidth=1;" vertex="1" parent="1">
          <mxGeometry x="345" y="-920" width="70" height="20" as="geometry" />
        </mxCell>
        <mxCell id="cSfYM5C8PKikPZIdfRje-39" value="" style="endArrow=none;html=1;rounded=0;exitX=0.995;exitY=0.338;exitDx=0;exitDy=0;exitPerimeter=0;entryX=0;entryY=0.5;entryDx=0;entryDy=0;" edge="1" parent="1" source="cSfYM5C8PKikPZIdfRje-7" target="cSfYM5C8PKikPZIdfRje-37">
          <mxGeometry width="50" height="50" relative="1" as="geometry">
            <mxPoint x="319.4000000000001" y="-983.28" as="sourcePoint" />
            <mxPoint x="355" y="-970" as="targetPoint" />
          </mxGeometry>
        </mxCell>
        <mxCell id="cSfYM5C8PKikPZIdfRje-40" value="" style="endArrow=none;html=1;rounded=0;exitX=1;exitY=0.5;exitDx=0;exitDy=0;entryX=0;entryY=0.5;entryDx=0;entryDy=0;" edge="1" parent="1" source="cSfYM5C8PKikPZIdfRje-7" target="cSfYM5C8PKikPZIdfRje-36">
          <mxGeometry width="50" height="50" relative="1" as="geometry">
            <mxPoint x="319.5" y="-876.48" as="sourcePoint" />
            <mxPoint x="355" y="-900" as="targetPoint" />
          </mxGeometry>
        </mxCell>
        <mxCell id="cSfYM5C8PKikPZIdfRje-41" value="seller" style="whiteSpace=wrap;html=1;align=center;strokeWidth=1;" vertex="1" parent="1">
          <mxGeometry x="20" y="-570" width="100" height="40" as="geometry" />
        </mxCell>
        <mxCell id="cSfYM5C8PKikPZIdfRje-42" value="website" style="ellipse;whiteSpace=wrap;html=1;align=center;strokeWidth=1;" vertex="1" parent="1">
          <mxGeometry x="160" y="-600" width="100" height="40" as="geometry" />
        </mxCell>
        <mxCell id="cSfYM5C8PKikPZIdfRje-45" value="date" style="ellipse;whiteSpace=wrap;html=1;align=center;strokeWidth=1;" vertex="1" parent="1">
          <mxGeometry x="280" y="-550" width="70" height="20" as="geometry" />
        </mxCell>
        <mxCell id="cSfYM5C8PKikPZIdfRje-46" value="type" style="ellipse;whiteSpace=wrap;html=1;align=center;strokeWidth=1;" vertex="1" parent="1">
          <mxGeometry x="280" y="-490" width="70" height="20" as="geometry" />
        </mxCell>
        <mxCell id="cSfYM5C8PKikPZIdfRje-47" value="number" style="ellipse;whiteSpace=wrap;html=1;align=center;strokeWidth=1;" vertex="1" parent="1">
          <mxGeometry x="280" y="-520" width="70" height="20" as="geometry" />
        </mxCell>
        <mxCell id="cSfYM5C8PKikPZIdfRje-48" value="rating" style="ellipse;shape=doubleEllipse;margin=3;whiteSpace=wrap;html=1;align=center;strokeWidth=1;" vertex="1" parent="1">
          <mxGeometry x="160" y="-530" width="100" height="40" as="geometry" />
        </mxCell>
        <mxCell id="cSfYM5C8PKikPZIdfRje-49" value="" style="endArrow=none;html=1;rounded=0;entryX=-0.03;entryY=0.519;entryDx=0;entryDy=0;entryPerimeter=0;exitX=1.015;exitY=0.419;exitDx=0;exitDy=0;exitPerimeter=0;" edge="1" parent="1" source="cSfYM5C8PKikPZIdfRje-41" target="cSfYM5C8PKikPZIdfRje-42">
          <mxGeometry width="50" height="50" relative="1" as="geometry">
            <mxPoint x="120" y="-540" as="sourcePoint" />
            <mxPoint x="150" y="-580" as="targetPoint" />
          </mxGeometry>
        </mxCell>
        <mxCell id="cSfYM5C8PKikPZIdfRje-50" value="" style="endArrow=none;html=1;rounded=0;entryX=0;entryY=0.5;entryDx=0;entryDy=0;exitX=1;exitY=0.5;exitDx=0;exitDy=0;" edge="1" parent="1" source="cSfYM5C8PKikPZIdfRje-41" target="cSfYM5C8PKikPZIdfRje-48">
          <mxGeometry width="50" height="50" relative="1" as="geometry">
            <mxPoint x="100" y="-470" as="sourcePoint" />
            <mxPoint x="150" y="-520" as="targetPoint" />
          </mxGeometry>
        </mxCell>
        <mxCell id="cSfYM5C8PKikPZIdfRje-51" value="" style="endArrow=none;html=1;rounded=0;entryX=0;entryY=0.5;entryDx=0;entryDy=0;exitX=1;exitY=0.5;exitDx=0;exitDy=0;" edge="1" parent="1" target="cSfYM5C8PKikPZIdfRje-46">
          <mxGeometry width="50" height="50" relative="1" as="geometry">
            <mxPoint x="250" y="-500" as="sourcePoint" />
            <mxPoint x="290" y="-460" as="targetPoint" />
          </mxGeometry>
        </mxCell>
        <mxCell id="cSfYM5C8PKikPZIdfRje-52" value="" style="endArrow=none;html=1;rounded=0;entryX=0;entryY=0.5;entryDx=0;entryDy=0;exitX=1;exitY=0;exitDx=0;exitDy=0;" edge="1" parent="1" source="cSfYM5C8PKikPZIdfRje-48" target="cSfYM5C8PKikPZIdfRje-45">
          <mxGeometry width="50" height="50" relative="1" as="geometry">
            <mxPoint x="230" y="-560" as="sourcePoint" />
            <mxPoint x="270" y="-520" as="targetPoint" />
          </mxGeometry>
        </mxCell>
        <mxCell id="cSfYM5C8PKikPZIdfRje-53" value="" style="endArrow=none;html=1;rounded=0;entryX=0;entryY=0.5;entryDx=0;entryDy=0;exitX=1;exitY=0.5;exitDx=0;exitDy=0;" edge="1" parent="1" source="cSfYM5C8PKikPZIdfRje-48" target="cSfYM5C8PKikPZIdfRje-47">
          <mxGeometry width="50" height="50" relative="1" as="geometry">
            <mxPoint x="260" y="-490" as="sourcePoint" />
            <mxPoint x="286.99" y="-472.24" as="targetPoint" />
          </mxGeometry>
        </mxCell>
        <mxCell id="cSfYM5C8PKikPZIdfRje-55" value="buyer" style="whiteSpace=wrap;html=1;align=center;strokeWidth=1;" vertex="1" parent="1">
          <mxGeometry x="20" y="-390" width="100" height="40" as="geometry" />
        </mxCell>
        <mxCell id="cSfYM5C8PKikPZIdfRje-58" value="" style="endArrow=none;html=1;rounded=0;entryX=0;entryY=0.5;entryDx=0;entryDy=0;exitX=1;exitY=0.5;exitDx=0;exitDy=0;" edge="1" parent="1" source="cSfYM5C8PKikPZIdfRje-55">
          <mxGeometry width="50" height="50" relative="1" as="geometry">
            <mxPoint x="110" y="-310" as="sourcePoint" />
            <mxPoint x="159.9999999999999" y="-370" as="targetPoint" />
          </mxGeometry>
        </mxCell>
        <mxCell id="cSfYM5C8PKikPZIdfRje-59" value="purchase_date" style="ellipse;shape=doubleEllipse;margin=3;whiteSpace=wrap;html=1;align=center;strokeWidth=1;" vertex="1" parent="1">
          <mxGeometry x="160" y="-390" width="100" height="40" as="geometry" />
        </mxCell>
        <mxCell id="cSfYM5C8PKikPZIdfRje-60" value="item" style="whiteSpace=wrap;html=1;align=center;strokeWidth=1;" vertex="1" parent="1">
          <mxGeometry x="490" y="-1030" width="100" height="40" as="geometry" />
        </mxCell>
        <mxCell id="cSfYM5C8PKikPZIdfRje-62" value="item_id" style="ellipse;whiteSpace=wrap;html=1;align=center;fontStyle=4;strokeWidth=1;" vertex="1" parent="1">
          <mxGeometry x="690" y="-1120" width="100" height="40" as="geometry" />
        </mxCell>
        <mxCell id="cSfYM5C8PKikPZIdfRje-63" value="listing_date" style="ellipse;whiteSpace=wrap;html=1;align=center;strokeWidth=1;" vertex="1" parent="1">
          <mxGeometry x="690" y="-1060" width="100" height="40" as="geometry" />
        </mxCell>
        <mxCell id="cSfYM5C8PKikPZIdfRje-64" value="price" style="ellipse;whiteSpace=wrap;html=1;align=center;strokeWidth=1;" vertex="1" parent="1">
          <mxGeometry x="690" y="-1010" width="100" height="40" as="geometry" />
        </mxCell>
        <mxCell id="cSfYM5C8PKikPZIdfRje-65" value="pictures" style="ellipse;shape=doubleEllipse;margin=3;whiteSpace=wrap;html=1;align=center;strokeWidth=1;" vertex="1" parent="1">
          <mxGeometry x="690" y="-950" width="100" height="40" as="geometry" />
        </mxCell>
        <mxCell id="cSfYM5C8PKikPZIdfRje-66" value="" style="endArrow=oval;html=1;rounded=0;exitX=1;exitY=0.25;exitDx=0;exitDy=0;entryX=0;entryY=0.5;entryDx=0;entryDy=0;endFill=1;" edge="1" parent="1" source="cSfYM5C8PKikPZIdfRje-60" target="cSfYM5C8PKikPZIdfRje-62">
          <mxGeometry width="50" height="50" relative="1" as="geometry">
            <mxPoint x="630" y="-1080" as="sourcePoint" />
            <mxPoint x="680" y="-1130" as="targetPoint" />
          </mxGeometry>
        </mxCell>
        <mxCell id="cSfYM5C8PKikPZIdfRje-67" value="" style="endArrow=oval;html=1;rounded=0;exitX=1;exitY=0.5;exitDx=0;exitDy=0;entryX=0;entryY=0.5;entryDx=0;entryDy=0;endFill=1;" edge="1" parent="1" source="cSfYM5C8PKikPZIdfRje-60" target="cSfYM5C8PKikPZIdfRje-63">
          <mxGeometry width="50" height="50" relative="1" as="geometry">
            <mxPoint x="640" y="-1040" as="sourcePoint" />
            <mxPoint x="690" y="-1120" as="targetPoint" />
          </mxGeometry>
        </mxCell>
        <mxCell id="cSfYM5C8PKikPZIdfRje-68" value="" style="endArrow=oval;html=1;rounded=0;exitX=1;exitY=0.75;exitDx=0;exitDy=0;entryX=-0.02;entryY=0.383;entryDx=0;entryDy=0;entryPerimeter=0;endFill=1;" edge="1" parent="1" source="cSfYM5C8PKikPZIdfRje-60" target="cSfYM5C8PKikPZIdfRje-64">
          <mxGeometry width="50" height="50" relative="1" as="geometry">
            <mxPoint x="650" y="-1030" as="sourcePoint" />
            <mxPoint x="700" y="-1110" as="targetPoint" />
          </mxGeometry>
        </mxCell>
        <mxCell id="cSfYM5C8PKikPZIdfRje-69" value="" style="endArrow=none;html=1;rounded=0;exitX=1;exitY=1;exitDx=0;exitDy=0;entryX=0;entryY=0.5;entryDx=0;entryDy=0;" edge="1" parent="1" source="cSfYM5C8PKikPZIdfRje-60" target="cSfYM5C8PKikPZIdfRje-65">
          <mxGeometry width="50" height="50" relative="1" as="geometry">
            <mxPoint x="660" y="-1020" as="sourcePoint" />
            <mxPoint x="680" y="-940" as="targetPoint" />
          </mxGeometry>
        </mxCell>
        <mxCell id="cSfYM5C8PKikPZIdfRje-71" value="goods" style="whiteSpace=wrap;html=1;align=center;strokeWidth=1;" vertex="1" parent="1">
          <mxGeometry x="490" y="-810" width="100" height="40" as="geometry" />
        </mxCell>
        <mxCell id="cSfYM5C8PKikPZIdfRje-72" value="discription" style="ellipse;whiteSpace=wrap;html=1;align=center;strokeWidth=1;" vertex="1" parent="1">
          <mxGeometry x="690" y="-900" width="100" height="40" as="geometry" />
        </mxCell>
        <mxCell id="cSfYM5C8PKikPZIdfRje-73" value="" style="endArrow=none;html=1;rounded=0;exitX=0.993;exitY=0.9;exitDx=0;exitDy=0;exitPerimeter=0;entryX=0;entryY=0.5;entryDx=0;entryDy=0;" edge="1" parent="1" source="cSfYM5C8PKikPZIdfRje-60" target="cSfYM5C8PKikPZIdfRje-72">
          <mxGeometry width="50" height="50" relative="1" as="geometry">
            <mxPoint x="590" y="-880" as="sourcePoint" />
            <mxPoint x="680" y="-880" as="targetPoint" />
          </mxGeometry>
        </mxCell>
        <mxCell id="cSfYM5C8PKikPZIdfRje-74" value="service" style="whiteSpace=wrap;html=1;align=center;strokeWidth=1;" vertex="1" parent="1">
          <mxGeometry x="490" y="-690" width="100" height="40" as="geometry" />
        </mxCell>
        <mxCell id="cSfYM5C8PKikPZIdfRje-76" value="" style="endArrow=oval;html=1;rounded=0;entryX=0;entryY=0.5;entryDx=0;entryDy=0;exitX=1;exitY=0.5;exitDx=0;exitDy=0;endFill=1;" edge="1" parent="1" source="cSfYM5C8PKikPZIdfRje-74">
          <mxGeometry width="50" height="50" relative="1" as="geometry">
            <mxPoint x="600" y="-646" as="sourcePoint" />
            <mxPoint x="660" y="-670" as="targetPoint" />
          </mxGeometry>
        </mxCell>
        <mxCell id="cSfYM5C8PKikPZIdfRje-77" value="serve_frequence" style="ellipse;shape=doubleEllipse;margin=3;whiteSpace=wrap;html=1;align=center;strokeWidth=1;" vertex="1" parent="1">
          <mxGeometry x="660" y="-690" width="100" height="40" as="geometry" />
        </mxCell>
        <mxCell id="cSfYM5C8PKikPZIdfRje-78" value="picture" style="shape=ext;margin=3;double=1;whiteSpace=wrap;html=1;align=center;strokeWidth=1;" vertex="1" parent="1">
          <mxGeometry x="490" y="-540" width="100" height="40" as="geometry" />
        </mxCell>
        <mxCell id="cSfYM5C8PKikPZIdfRje-79" value="seq_num" style="ellipse;whiteSpace=wrap;html=1;align=center;fontStyle=4;strokeWidth=1;" vertex="1" parent="1">
          <mxGeometry x="630" y="-600" width="100" height="40" as="geometry" />
        </mxCell>
        <mxCell id="cSfYM5C8PKikPZIdfRje-80" value="url" style="ellipse;whiteSpace=wrap;html=1;align=center;strokeWidth=1;" vertex="1" parent="1">
          <mxGeometry x="630" y="-540" width="100" height="40" as="geometry" />
        </mxCell>
        <mxCell id="cSfYM5C8PKikPZIdfRje-81" value="fomat" style="ellipse;whiteSpace=wrap;html=1;align=center;strokeWidth=1;" vertex="1" parent="1">
          <mxGeometry x="630" y="-480" width="100" height="40" as="geometry" />
        </mxCell>
        <mxCell id="cSfYM5C8PKikPZIdfRje-82" value="" style="endArrow=oval;html=1;rounded=0;exitX=1.011;exitY=0.184;exitDx=0;exitDy=0;exitPerimeter=0;endFill=1;" edge="1" parent="1" source="cSfYM5C8PKikPZIdfRje-78">
          <mxGeometry width="50" height="50" relative="1" as="geometry">
            <mxPoint x="590" y="-540" as="sourcePoint" />
            <mxPoint x="630" y="-580" as="targetPoint" />
          </mxGeometry>
        </mxCell>
        <mxCell id="cSfYM5C8PKikPZIdfRje-84" value="" style="endArrow=oval;html=1;rounded=0;exitX=1.001;exitY=0.413;exitDx=0;exitDy=0;exitPerimeter=0;entryX=-0.007;entryY=0.413;entryDx=0;entryDy=0;entryPerimeter=0;endFill=1;" edge="1" parent="1" source="cSfYM5C8PKikPZIdfRje-78" target="cSfYM5C8PKikPZIdfRje-80">
          <mxGeometry width="50" height="50" relative="1" as="geometry">
            <mxPoint x="611.1000000000001" y="-532.64" as="sourcePoint" />
            <mxPoint x="640" y="-570.0000000000001" as="targetPoint" />
          </mxGeometry>
        </mxCell>
        <mxCell id="cSfYM5C8PKikPZIdfRje-85" value="" style="endArrow=none;html=1;rounded=0;exitX=1;exitY=0.75;exitDx=0;exitDy=0;entryX=0;entryY=0.5;entryDx=0;entryDy=0;" edge="1" parent="1" source="cSfYM5C8PKikPZIdfRje-78" target="cSfYM5C8PKikPZIdfRje-81">
          <mxGeometry width="50" height="50" relative="1" as="geometry">
            <mxPoint x="621.1000000000001" y="-522.64" as="sourcePoint" />
            <mxPoint x="650" y="-560.0000000000001" as="targetPoint" />
          </mxGeometry>
        </mxCell>
        <mxCell id="cSfYM5C8PKikPZIdfRje-86" value="ad" style="shape=ext;margin=3;double=1;whiteSpace=wrap;html=1;align=center;strokeWidth=1;" vertex="1" parent="1">
          <mxGeometry x="470" y="-270" width="100" height="40" as="geometry" />
        </mxCell>
        <mxCell id="cSfYM5C8PKikPZIdfRje-87" value="ad_id" style="ellipse;whiteSpace=wrap;html=1;align=center;fontStyle=4;strokeWidth=1;" vertex="1" parent="1">
          <mxGeometry x="660" y="-400" width="100" height="40" as="geometry" />
        </mxCell>
        <mxCell id="cSfYM5C8PKikPZIdfRje-88" value="relate_item" style="ellipse;whiteSpace=wrap;html=1;align=center;strokeWidth=1;" vertex="1" parent="1">
          <mxGeometry x="660" y="-330" width="100" height="40" as="geometry" />
        </mxCell>
        <mxCell id="cSfYM5C8PKikPZIdfRje-89" value="level" style="ellipse;whiteSpace=wrap;html=1;align=center;strokeWidth=1;" vertex="1" parent="1">
          <mxGeometry x="660" y="-270" width="100" height="40" as="geometry" />
        </mxCell>
        <mxCell id="cSfYM5C8PKikPZIdfRje-90" value="additional_text" style="ellipse;whiteSpace=wrap;html=1;align=center;strokeWidth=1;" vertex="1" parent="1">
          <mxGeometry x="660" y="-210" width="100" height="40" as="geometry" />
        </mxCell>
        <mxCell id="cSfYM5C8PKikPZIdfRje-91" value="associated_pic" style="ellipse;whiteSpace=wrap;html=1;align=center;strokeWidth=1;" vertex="1" parent="1">
          <mxGeometry x="660" y="-150" width="100" height="40" as="geometry" />
        </mxCell>
        <mxCell id="cSfYM5C8PKikPZIdfRje-92" value="" style="endArrow=oval;html=1;rounded=0;entryX=0;entryY=0.5;entryDx=0;entryDy=0;exitX=1;exitY=0.25;exitDx=0;exitDy=0;endFill=1;" edge="1" parent="1" source="cSfYM5C8PKikPZIdfRje-86" target="cSfYM5C8PKikPZIdfRje-87">
          <mxGeometry width="50" height="50" relative="1" as="geometry">
            <mxPoint x="580" y="-260" as="sourcePoint" />
            <mxPoint x="630" y="-310" as="targetPoint" />
          </mxGeometry>
        </mxCell>
        <mxCell id="cSfYM5C8PKikPZIdfRje-94" value="" style="endArrow=oval;html=1;rounded=0;entryX=0;entryY=0.5;entryDx=0;entryDy=0;exitX=1;exitY=0.5;exitDx=0;exitDy=0;endFill=1;" edge="1" parent="1" source="cSfYM5C8PKikPZIdfRje-86" target="cSfYM5C8PKikPZIdfRje-88">
          <mxGeometry width="50" height="50" relative="1" as="geometry">
            <mxPoint x="580" y="-250" as="sourcePoint" />
            <mxPoint x="670" y="-370" as="targetPoint" />
          </mxGeometry>
        </mxCell>
        <mxCell id="cSfYM5C8PKikPZIdfRje-95" value="" style="endArrow=oval;html=1;rounded=0;entryX=0;entryY=0.5;entryDx=0;entryDy=0;exitX=1;exitY=0.5;exitDx=0;exitDy=0;endFill=1;" edge="1" parent="1" source="cSfYM5C8PKikPZIdfRje-86" target="cSfYM5C8PKikPZIdfRje-89">
          <mxGeometry width="50" height="50" relative="1" as="geometry">
            <mxPoint x="590" y="-240" as="sourcePoint" />
            <mxPoint x="680" y="-360" as="targetPoint" />
          </mxGeometry>
        </mxCell>
        <mxCell id="cSfYM5C8PKikPZIdfRje-96" value="" style="endArrow=none;html=1;rounded=0;entryX=0;entryY=0.5;entryDx=0;entryDy=0;exitX=1;exitY=0.75;exitDx=0;exitDy=0;" edge="1" parent="1" source="cSfYM5C8PKikPZIdfRje-86" target="cSfYM5C8PKikPZIdfRje-90">
          <mxGeometry width="50" height="50" relative="1" as="geometry">
            <mxPoint x="600" y="-230" as="sourcePoint" />
            <mxPoint x="690" y="-350" as="targetPoint" />
          </mxGeometry>
        </mxCell>
        <mxCell id="cSfYM5C8PKikPZIdfRje-97" value="" style="endArrow=oval;html=1;rounded=0;entryX=0;entryY=0.5;entryDx=0;entryDy=0;exitX=1;exitY=1;exitDx=0;exitDy=0;endFill=1;" edge="1" parent="1" source="cSfYM5C8PKikPZIdfRje-86" target="cSfYM5C8PKikPZIdfRje-91">
          <mxGeometry width="50" height="50" relative="1" as="geometry">
            <mxPoint x="610" y="-220" as="sourcePoint" />
            <mxPoint x="700" y="-340" as="targetPoint" />
          </mxGeometry>
        </mxCell>
        <mxCell id="cSfYM5C8PKikPZIdfRje-98" value="User" style="whiteSpace=wrap;html=1;align=center;" vertex="1" parent="1">
          <mxGeometry x="91.25" y="458" width="100" height="40" as="geometry" />
        </mxCell>
        <mxCell id="cSfYM5C8PKikPZIdfRje-99" value="seller" style="whiteSpace=wrap;html=1;align=center;strokeWidth=1;" vertex="1" parent="1">
          <mxGeometry x="200" y="668" width="100" height="40" as="geometry" />
        </mxCell>
        <mxCell id="cSfYM5C8PKikPZIdfRje-101" value="buyer" style="whiteSpace=wrap;html=1;align=center;strokeWidth=1;" vertex="1" parent="1">
          <mxGeometry x="-28.75" y="668" width="100" height="40" as="geometry" />
        </mxCell>
        <mxCell id="cSfYM5C8PKikPZIdfRje-102" value="ad" style="shape=ext;margin=3;double=1;whiteSpace=wrap;html=1;align=center;strokeWidth=1;" vertex="1" parent="1">
          <mxGeometry x="380" y="310" width="100" height="40" as="geometry" />
        </mxCell>
        <mxCell id="cSfYM5C8PKikPZIdfRje-103" value="picture" style="shape=ext;margin=3;double=1;whiteSpace=wrap;html=1;align=center;strokeWidth=1;" vertex="1" parent="1">
          <mxGeometry x="680" y="300" width="100" height="40" as="geometry" />
        </mxCell>
        <mxCell id="cSfYM5C8PKikPZIdfRje-104" value="service" style="whiteSpace=wrap;html=1;align=center;strokeWidth=1;" vertex="1" parent="1">
          <mxGeometry x="630" y="660" width="100" height="40" as="geometry" />
        </mxCell>
        <mxCell id="cSfYM5C8PKikPZIdfRje-105" value="goods" style="whiteSpace=wrap;html=1;align=center;strokeWidth=1;" vertex="1" parent="1">
          <mxGeometry x="440" y="660" width="100" height="40" as="geometry" />
        </mxCell>
        <mxCell id="cSfYM5C8PKikPZIdfRje-108" value="&lt;font style=&quot;font-size: 18px;&quot;&gt;isA&lt;/font&gt;" style="strokeWidth=2;html=1;shape=mxgraph.flowchart.extract_or_measurement;whiteSpace=wrap;" vertex="1" parent="1">
          <mxGeometry x="110" y="558" width="62.5" height="40" as="geometry" />
        </mxCell>
        <mxCell id="cSfYM5C8PKikPZIdfRje-109" value="" style="endArrow=none;html=1;rounded=0;fontSize=18;" edge="1" parent="1" target="cSfYM5C8PKikPZIdfRje-108">
          <mxGeometry relative="1" as="geometry">
            <mxPoint x="40" y="668" as="sourcePoint" />
            <mxPoint x="120" y="638" as="targetPoint" />
          </mxGeometry>
        </mxCell>
        <mxCell id="cSfYM5C8PKikPZIdfRje-110" value="" style="endArrow=none;html=1;rounded=0;fontSize=18;entryX=0.5;entryY=0;entryDx=0;entryDy=0;exitX=0.745;exitY=1.023;exitDx=0;exitDy=0;exitPerimeter=0;" edge="1" parent="1" source="cSfYM5C8PKikPZIdfRje-108" target="cSfYM5C8PKikPZIdfRje-99">
          <mxGeometry relative="1" as="geometry">
            <mxPoint x="130" y="598" as="sourcePoint" />
            <mxPoint x="213" y="608" as="targetPoint" />
          </mxGeometry>
        </mxCell>
        <mxCell id="cSfYM5C8PKikPZIdfRje-111" value="" style="endArrow=none;html=1;rounded=0;fontSize=18;exitX=0.5;exitY=0;exitDx=0;exitDy=0;entryX=0.5;entryY=1;entryDx=0;entryDy=0;exitPerimeter=0;" edge="1" parent="1" source="cSfYM5C8PKikPZIdfRje-108" target="cSfYM5C8PKikPZIdfRje-98">
          <mxGeometry relative="1" as="geometry">
            <mxPoint x="69.99999999999989" y="638" as="sourcePoint" />
            <mxPoint x="149.9999999999999" y="608" as="targetPoint" />
          </mxGeometry>
        </mxCell>
        <mxCell id="cSfYM5C8PKikPZIdfRje-112" value="&lt;font style=&quot;font-size: 18px;&quot;&gt;isA&lt;/font&gt;" style="strokeWidth=2;html=1;shape=mxgraph.flowchart.extract_or_measurement;whiteSpace=wrap;" vertex="1" parent="1">
          <mxGeometry x="548.75" y="590" width="62.5" height="40" as="geometry" />
        </mxCell>
        <mxCell id="cSfYM5C8PKikPZIdfRje-113" value="" style="endArrow=none;html=1;rounded=0;fontSize=18;exitX=0.5;exitY=0;exitDx=0;exitDy=0;entryX=0.5;entryY=1;entryDx=0;entryDy=0;exitPerimeter=0;startArrow=none;" edge="1" parent="1" source="cSfYM5C8PKikPZIdfRje-106">
          <mxGeometry relative="1" as="geometry">
            <mxPoint x="579.8199999999999" y="590" as="sourcePoint" />
            <mxPoint x="579.8199999999999" y="530" as="targetPoint" />
            <Array as="points" />
          </mxGeometry>
        </mxCell>
        <mxCell id="cSfYM5C8PKikPZIdfRje-114" value="" style="endArrow=none;html=1;rounded=0;fontSize=18;exitX=0.5;exitY=0;exitDx=0;exitDy=0;" edge="1" parent="1">
          <mxGeometry relative="1" as="geometry">
            <mxPoint x="499.9999999999999" y="660" as="sourcePoint" />
            <mxPoint x="579.9999999999999" y="630" as="targetPoint" />
          </mxGeometry>
        </mxCell>
        <mxCell id="cSfYM5C8PKikPZIdfRje-115" value="" style="endArrow=none;html=1;rounded=0;fontSize=18;entryX=0.5;entryY=0;entryDx=0;entryDy=0;" edge="1" parent="1">
          <mxGeometry relative="1" as="geometry">
            <mxPoint x="579.9999999999999" y="630" as="sourcePoint" />
            <mxPoint x="685" y="660" as="targetPoint" />
          </mxGeometry>
        </mxCell>
        <mxCell id="cSfYM5C8PKikPZIdfRje-116" value="For" style="shape=rhombus;double=1;perimeter=rhombusPerimeter;whiteSpace=wrap;html=1;align=center;strokeWidth=1;fontSize=18;rotation=-45;" vertex="1" parent="1">
          <mxGeometry x="590" y="390" width="120" height="60" as="geometry" />
        </mxCell>
        <mxCell id="cSfYM5C8PKikPZIdfRje-124" value="" style="shape=link;html=1;rounded=0;fontSize=18;startArrow=oval;startFill=1;endArrow=oval;endFill=1;exitX=0.64;exitY=0.99;exitDx=0;exitDy=0;exitPerimeter=0;" edge="1" parent="1">
          <mxGeometry relative="1" as="geometry">
            <mxPoint x="734" y="339.5999999999999" as="sourcePoint" />
            <mxPoint x="690" y="380" as="targetPoint" />
          </mxGeometry>
        </mxCell>
        <mxCell id="cSfYM5C8PKikPZIdfRje-125" value="N" style="resizable=0;html=1;align=right;verticalAlign=bottom;strokeWidth=1;fontSize=18;" connectable="0" vertex="1" parent="cSfYM5C8PKikPZIdfRje-124">
          <mxGeometry x="1" relative="1" as="geometry" />
        </mxCell>
        <mxCell id="cSfYM5C8PKikPZIdfRje-126" value="For" style="shape=rhombus;double=1;perimeter=rhombusPerimeter;whiteSpace=wrap;html=1;align=center;strokeWidth=1;fontSize=18;rotation=45;" vertex="1" parent="1">
          <mxGeometry x="440" y="390" width="120" height="60" as="geometry" />
        </mxCell>
        <mxCell id="cSfYM5C8PKikPZIdfRje-128" value="" style="shape=link;html=1;rounded=0;fontSize=18;startArrow=oval;startFill=1;endArrow=oval;endFill=1;exitX=0.5;exitY=1;exitDx=0;exitDy=0;entryX=0;entryY=0.5;entryDx=0;entryDy=0;" edge="1" parent="1" source="cSfYM5C8PKikPZIdfRje-102" target="cSfYM5C8PKikPZIdfRje-126">
          <mxGeometry relative="1" as="geometry">
            <mxPoint x="743.9999999999998" y="349.5999999999999" as="sourcePoint" />
            <mxPoint x="700" y="390" as="targetPoint" />
          </mxGeometry>
        </mxCell>
        <mxCell id="cSfYM5C8PKikPZIdfRje-129" value="N" style="resizable=0;html=1;align=right;verticalAlign=bottom;strokeWidth=1;fontSize=18;" connectable="0" vertex="1" parent="cSfYM5C8PKikPZIdfRje-128">
          <mxGeometry x="1" relative="1" as="geometry">
            <mxPoint x="12" y="-8" as="offset" />
          </mxGeometry>
        </mxCell>
        <mxCell id="cSfYM5C8PKikPZIdfRje-130" value="Place" style="shape=rhombus;perimeter=rhombusPerimeter;whiteSpace=wrap;html=1;align=center;strokeWidth=1;fontSize=18;rotation=-60;" vertex="1" parent="1">
          <mxGeometry x="290" y="490" width="120" height="60" as="geometry" />
        </mxCell>
        <mxCell id="cSfYM5C8PKikPZIdfRje-133" value="" style="endArrow=none;html=1;rounded=0;fontSize=18;exitX=1;exitY=0.5;exitDx=0;exitDy=0;" edge="1" parent="1" source="cSfYM5C8PKikPZIdfRje-99" target="cSfYM5C8PKikPZIdfRje-130">
          <mxGeometry relative="1" as="geometry">
            <mxPoint x="150" y="330" as="sourcePoint" />
            <mxPoint x="190" y="330" as="targetPoint" />
          </mxGeometry>
        </mxCell>
        <mxCell id="cSfYM5C8PKikPZIdfRje-134" value="N" style="resizable=0;html=1;align=right;verticalAlign=bottom;strokeWidth=1;fontSize=18;" connectable="0" vertex="1" parent="cSfYM5C8PKikPZIdfRje-133">
          <mxGeometry x="1" relative="1" as="geometry">
            <mxPoint x="-23" y="37" as="offset" />
          </mxGeometry>
        </mxCell>
        <mxCell id="cSfYM5C8PKikPZIdfRje-135" value="" style="endArrow=none;html=1;rounded=0;fontSize=18;entryX=1;entryY=0.5;entryDx=0;entryDy=0;exitX=0.5;exitY=1;exitDx=0;exitDy=0;" edge="1" parent="1" source="cSfYM5C8PKikPZIdfRje-102" target="cSfYM5C8PKikPZIdfRje-130">
          <mxGeometry relative="1" as="geometry">
            <mxPoint x="40" y="420" as="sourcePoint" />
            <mxPoint x="200" y="420" as="targetPoint" />
          </mxGeometry>
        </mxCell>
        <mxCell id="cSfYM5C8PKikPZIdfRje-136" value="1" style="resizable=0;html=1;align=right;verticalAlign=bottom;strokeWidth=1;fontSize=18;" connectable="0" vertex="1" parent="cSfYM5C8PKikPZIdfRje-135">
          <mxGeometry x="1" relative="1" as="geometry" />
        </mxCell>
        <mxCell id="cSfYM5C8PKikPZIdfRje-106" value="item" style="whiteSpace=wrap;html=1;align=center;strokeWidth=1;" vertex="1" parent="1">
          <mxGeometry x="530" y="520" width="100" height="40" as="geometry" />
        </mxCell>
        <mxCell id="cSfYM5C8PKikPZIdfRje-137" value="" style="endArrow=none;html=1;rounded=0;fontSize=18;exitX=0.5;exitY=0;exitDx=0;exitDy=0;entryX=0.5;entryY=1;entryDx=0;entryDy=0;exitPerimeter=0;" edge="1" parent="1" target="cSfYM5C8PKikPZIdfRje-106">
          <mxGeometry relative="1" as="geometry">
            <mxPoint x="579.8199999999997" y="590" as="sourcePoint" />
            <mxPoint x="579.8199999999997" y="530" as="targetPoint" />
            <Array as="points">
              <mxPoint x="579.5699999999999" y="560" />
            </Array>
          </mxGeometry>
        </mxCell>
        <mxCell id="cSfYM5C8PKikPZIdfRje-138" value="" style="endArrow=none;html=1;rounded=0;fontSize=18;entryX=1;entryY=0.5;entryDx=0;entryDy=0;exitX=0.352;exitY=-0.032;exitDx=0;exitDy=0;exitPerimeter=0;" edge="1" parent="1" source="cSfYM5C8PKikPZIdfRje-106" target="cSfYM5C8PKikPZIdfRje-126">
          <mxGeometry relative="1" as="geometry">
            <mxPoint x="360" y="490" as="sourcePoint" />
            <mxPoint x="520" y="490" as="targetPoint" />
          </mxGeometry>
        </mxCell>
        <mxCell id="cSfYM5C8PKikPZIdfRje-139" value="1" style="resizable=0;html=1;align=right;verticalAlign=bottom;strokeWidth=1;fontSize=18;" connectable="0" vertex="1" parent="cSfYM5C8PKikPZIdfRje-138">
          <mxGeometry x="1" relative="1" as="geometry">
            <mxPoint x="18" as="offset" />
          </mxGeometry>
        </mxCell>
        <mxCell id="cSfYM5C8PKikPZIdfRje-140" value="" style="endArrow=none;html=1;rounded=0;fontSize=18;exitX=0.5;exitY=0;exitDx=0;exitDy=0;" edge="1" parent="1" source="cSfYM5C8PKikPZIdfRje-106" target="cSfYM5C8PKikPZIdfRje-116">
          <mxGeometry relative="1" as="geometry">
            <mxPoint x="580" y="490" as="sourcePoint" />
            <mxPoint x="740" y="490" as="targetPoint" />
          </mxGeometry>
        </mxCell>
        <mxCell id="cSfYM5C8PKikPZIdfRje-141" value="1" style="resizable=0;html=1;align=right;verticalAlign=bottom;strokeWidth=1;fontSize=18;" connectable="0" vertex="1" parent="cSfYM5C8PKikPZIdfRje-140">
          <mxGeometry x="1" relative="1" as="geometry">
            <mxPoint x="-13" y="3" as="offset" />
          </mxGeometry>
        </mxCell>
        <mxCell id="cSfYM5C8PKikPZIdfRje-142" value="rate" style="shape=rhombus;perimeter=rhombusPerimeter;whiteSpace=wrap;html=1;align=center;strokeWidth=1;fontSize=18;" vertex="1" parent="1">
          <mxGeometry x="103" y="665.5" width="69.5" height="45" as="geometry" />
        </mxCell>
        <mxCell id="cSfYM5C8PKikPZIdfRje-146" value="" style="line;strokeWidth=1;rotatable=0;dashed=0;labelPosition=right;align=left;verticalAlign=middle;spacingTop=0;spacingLeft=6;points=[];portConstraint=eastwest;fontSize=18;" vertex="1" parent="1">
          <mxGeometry x="171.25" y="683" width="28.75" height="10" as="geometry" />
        </mxCell>
        <mxCell id="cSfYM5C8PKikPZIdfRje-147" value="" style="line;strokeWidth=1;rotatable=0;dashed=0;labelPosition=right;align=left;verticalAlign=middle;spacingTop=0;spacingLeft=6;points=[];portConstraint=eastwest;fontSize=18;" vertex="1" parent="1">
          <mxGeometry x="71.25" y="683" width="31.75" height="10" as="geometry" />
        </mxCell>
        <mxCell id="cSfYM5C8PKikPZIdfRje-151" value="M" style="resizable=0;html=1;align=left;verticalAlign=bottom;strokeWidth=1;fontSize=18;" connectable="0" vertex="1" parent="1">
          <mxGeometry x="87.12" y="688" as="geometry" />
        </mxCell>
        <mxCell id="cSfYM5C8PKikPZIdfRje-152" value="N" style="resizable=0;html=1;align=right;verticalAlign=bottom;strokeWidth=1;fontSize=18;" connectable="0" vertex="1" parent="1">
          <mxGeometry x="185.63" y="688" as="geometry" />
        </mxCell>
        <mxCell id="cSfYM5C8PKikPZIdfRje-153" value="have" style="shape=rhombus;perimeter=rhombusPerimeter;whiteSpace=wrap;html=1;align=center;strokeWidth=1;fontSize=18;" vertex="1" parent="1">
          <mxGeometry x="520" y="290" width="120" height="60" as="geometry" />
        </mxCell>
        <mxCell id="cSfYM5C8PKikPZIdfRje-154" value="" style="endArrow=none;html=1;rounded=0;fontSize=18;entryX=1;entryY=0.5;entryDx=0;entryDy=0;exitX=0;exitY=0.5;exitDx=0;exitDy=0;" edge="1" parent="1" source="cSfYM5C8PKikPZIdfRje-103" target="cSfYM5C8PKikPZIdfRje-153">
          <mxGeometry relative="1" as="geometry">
            <mxPoint x="510" y="220" as="sourcePoint" />
            <mxPoint x="670" y="220" as="targetPoint" />
          </mxGeometry>
        </mxCell>
        <mxCell id="cSfYM5C8PKikPZIdfRje-155" value="1" style="resizable=0;html=1;align=right;verticalAlign=bottom;strokeWidth=1;fontSize=18;" connectable="0" vertex="1" parent="cSfYM5C8PKikPZIdfRje-154">
          <mxGeometry x="1" relative="1" as="geometry" />
        </mxCell>
        <mxCell id="cSfYM5C8PKikPZIdfRje-156" value="" style="endArrow=none;html=1;rounded=0;fontSize=18;entryX=0;entryY=0.5;entryDx=0;entryDy=0;exitX=1;exitY=0.25;exitDx=0;exitDy=0;" edge="1" parent="1" source="cSfYM5C8PKikPZIdfRje-102" target="cSfYM5C8PKikPZIdfRje-153">
          <mxGeometry relative="1" as="geometry">
            <mxPoint x="400" y="240" as="sourcePoint" />
            <mxPoint x="560" y="240" as="targetPoint" />
          </mxGeometry>
        </mxCell>
        <mxCell id="cSfYM5C8PKikPZIdfRje-157" value="N" style="resizable=0;html=1;align=right;verticalAlign=bottom;strokeWidth=1;fontSize=18;" connectable="0" vertex="1" parent="cSfYM5C8PKikPZIdfRje-156">
          <mxGeometry x="1" relative="1" as="geometry" />
        </mxCell>
        <mxCell id="cSfYM5C8PKikPZIdfRje-158" value="&lt;font style=&quot;font-size: 10px;&quot;&gt;&lt;i&gt;covering&lt;/i&gt;&lt;/font&gt;" style="text;html=1;align=center;verticalAlign=middle;resizable=0;points=[];autosize=1;strokeColor=none;fillColor=none;fontSize=18;" vertex="1" parent="1">
          <mxGeometry x="107.75" y="588" width="60" height="40" as="geometry" />
        </mxCell>
        <mxCell id="cSfYM5C8PKikPZIdfRje-160" value="&lt;font style=&quot;font-size: 10px;&quot;&gt;&lt;i&gt;covering&lt;br&gt;disjoint&lt;br&gt;&lt;/i&gt;&lt;/font&gt;" style="text;html=1;align=center;verticalAlign=middle;resizable=0;points=[];autosize=1;strokeColor=none;fillColor=none;fontSize=18;" vertex="1" parent="1">
          <mxGeometry x="548.75" y="620" width="60" height="60" as="geometry" />
        </mxCell>
      </root>
    </mxGraphModel>
  </diagram>
</mxfile>
